<?xml version="1.0" encoding="utf-8"?>
<!-- Generator: Adobe Illustrator 17.1.0, SVG Export Plug-In . SVG Version: 6.00 Build 0)  -->
<!DOCTYPE svg PUBLIC "-//W3C//DTD SVG 1.1//EN" "http://www.w3.org/Graphics/SVG/1.1/DTD/svg11.dtd">
<svg version="1.1" id="Layer_1" xmlns="http://www.w3.org/2000/svg" xmlns:xlink="http://www.w3.org/1999/xlink" x="0px" y="0px"
	 width="160px" height="142.6px" viewBox="0 0 160 142.6" enable-background="new 0 0 160 142.6" xml:space="preserve">
<g>
	<g id="Shape_1_copy_4_2_">
		<g>
			<path fill="#442103" d="M147.9,0H12.1C5.5,0,0,4.8,0,10.7v121.1c0,6,5.5,10.7,12.1,10.7h135.7c6.7,0,12.1-4.8,12.1-10.7V10.7
				C160,4.8,154.5,0,147.9,0z"/>
		</g>
	</g>
	<g>
		<g>
			<path fill="#FFFFFF" d="M36.3,87v-3.5c-2.5,2.6-5.1,4-7.9,4.2c-2.6,0-4.9-1.1-6.5-3c-1.8-1.9-2.6-4.6-2.6-8.3V59h5.3v18
				c0,4,1.8,6.2,5.5,6.2c2.5,0,4.6-1.4,6.3-3.9V59h5.3v28.2h-5.3V87z"/>
			<path fill="#FFFFFF" d="M54.9,62.5L54.9,62.5c2.3-2.8,4.9-4.2,8.1-4.2c2.6,0,4.8,0.9,6.3,2.8c1.8,1.8,2.6,4.8,2.6,8.6v17.4h-5.3
				V69.7c0-2.1-0.5-3.9-1.4-5.1c-0.9-1.2-2.3-1.8-3.9-1.8c-1.1,0-2.1,0.4-3.2,0.9c-1.1,0.7-2.3,1.8-3.3,3.2v20.2h-5.3V59h5.3
				C54.9,59,54.9,62.5,54.9,62.5z"/>
			<path fill="#FFFFFF" d="M101.4,63.2h-5.5c1.1,1.1,1.8,1.9,2.3,3c0.4,0.9,0.5,2.1,0.5,3.2c0,1.2-0.4,2.3-0.7,3.5
				c-0.5,1.2-1.1,2.1-1.8,2.8c-0.9,0.9-1.9,1.6-3.2,1.9c-1.2,0.4-2.5,0.7-3.5,0.9c-1.2,0.2-2.1,0.4-2.8,0.7
				c-0.9,0.4-1.2,0.9-1.2,1.8c0,1.4,2.6,2.6,8.1,3.7c2.8,0.5,4.9,1.6,6.2,3c1.1,1.4,1.6,3,1.6,4.9c-0.2,5.8-4.4,8.8-12.7,9
				c-3.7,0-6.5-0.9-8.8-2.5c-2.3-1.6-3.5-3.5-3.5-6.2c0-4,2.1-6.7,6.7-7.7c-1.8-1.2-2.6-2.3-2.5-3.5c0-0.9,0.4-1.8,1.2-2.5
				c0.7-0.7,1.8-1.2,3-1.4v-0.4c-1.9-0.9-3.3-2.1-4.4-3.5c-1.1-1.4-1.6-3.2-1.6-5.3c0.2-6.3,4-9.7,11.6-9.7h10.9
				C101.4,59,101.4,63.2,101.4,63.2z M94.2,68.6c0-1.4-0.5-2.6-1.4-3.5c-1.1-0.9-2.3-1.4-3.7-1.4c-1.4,0-2.6,0.5-3.7,1.4
				c-1.1,1.1-1.6,2.3-1.6,3.7c0,1.6,0.5,2.8,1.4,3.7c0.9,1.1,2.3,1.6,3.9,1.6s2.8-0.5,3.7-1.6S94,70.2,94.2,68.6z M96.5,92.9
				c0-0.9-0.4-1.8-0.9-2.3c-0.5-0.5-1.4-1.1-2.3-1.4c-1.9-0.7-3.9-0.9-5.6-0.9s-3.3,0.4-4.4,1.2c-1.2,0.7-1.8,1.8-1.8,3
				c0,2.8,2.5,4.4,7.6,4.4C93.8,97,96.3,95.6,96.5,92.9z"/>
			<path fill="#FFFFFF" d="M21.8,91.9c-0.2,0-0.2,0-0.4,0c-0.4,0-0.5,0.2-0.7,0.4s-0.2,0.5-0.2,0.9v0.2h0.7v0.9h-0.7v3.7h-0.9v-3.7
				h-0.5v-0.9h0.5v-0.4c0-0.4,0-0.7,0.2-1.1c0-0.2,0.2-0.5,0.4-0.7c0.2-0.2,0.4-0.4,0.7-0.4c0.2,0,0.5,0,0.9,0V91.9z"/>
			<path fill="#FFFFFF" d="M24.1,93.1c0.7,0,1.2,0.2,1.6,0.7c0.4,0.4,0.7,1.1,0.7,1.6c0,0.7-0.2,1.2-0.7,1.8
				c-0.4,0.4-1.1,0.7-1.8,0.7s-1.2-0.2-1.6-0.7c-0.4-0.4-0.7-1.1-0.7-1.8c0-0.7,0.2-1.2,0.7-1.6C22.9,93.5,23.4,93.1,24.1,93.1z
				 M24.1,94c-0.4,0-0.7,0.2-1.1,0.4c-0.2,0.4-0.4,0.7-0.4,1.1c0,0.5,0.2,0.9,0.4,1.2c0.2,0.4,0.5,0.5,1.1,0.5
				c0.9,0,1.4-0.5,1.4-1.6c0-0.5-0.2-0.9-0.4-1.1C25,94.2,24.6,94,24.1,94z M23.4,91.5c0.4,0,0.4,0.2,0.4,0.5s-0.2,0.5-0.4,0.5
				c-0.4,0-0.4-0.2-0.5-0.5C22.9,91.7,23.1,91.5,23.4,91.5z M25.2,91.5c0.4,0,0.4,0.2,0.4,0.5s-0.2,0.5-0.4,0.5
				c-0.4,0-0.4-0.2-0.5-0.5C24.8,91.7,24.8,91.5,25.2,91.5z"/>
			<path fill="#FFFFFF" d="M28.5,93.3v1.1l0,0c0.4-0.7,0.9-1.1,1.2-1.1s0.7,0.2,1.1,0.5l-0.5,0.7c-0.4-0.4-0.5-0.4-0.7-0.5
				c-0.4,0-0.5,0.2-0.7,0.4c-0.2,0.4-0.4,0.5-0.4,1.1v2.3h-0.9v-4.4H28.5z"/>
			<path fill="#FFFFFF" d="M34.9,97.3c-0.5,0.4-1.1,0.5-1.8,0.5c-0.7,0-1.2-0.2-1.6-0.7c-0.4-0.5-0.5-1.1-0.5-1.6
				c0-0.7,0.2-1.2,0.5-1.6c0.4-0.4,0.9-0.7,1.4-0.7c1.2,0,1.8,0.9,1.9,2.5h-3c0.2,0.9,0.7,1.4,1.4,1.4c0.5,0,1.1-0.2,1.6-0.5
				C34.9,96.6,34.9,97.3,34.9,97.3z M34.1,95c0-0.7-0.4-1.1-1.1-1.1c-0.7,0-1.1,0.4-1.2,1.1H34.1z"/>
			<path fill="#FFFFFF" d="M37,93.3h1.4v0.9H37v2.3c0,0.2,0,0.4,0.2,0.5s0.2,0.2,0.4,0.2c0.4,0,0.7-0.2,0.9-0.4v0.9
				C38,97.9,37.7,98,37.3,98c-0.5,0-0.9-0.2-1.1-0.4c-0.2-0.2-0.4-0.5-0.4-1.1v-2.5h-0.7V94l1.6-1.6v0.9H37z"/>
			<path fill="#FFFFFF" d="M42.6,97.5c-0.4,0.2-0.5,0.4-0.9,0.4c-0.2,0-0.4,0-0.4-0.2c-0.2,0-0.2-0.2-0.2-0.4
				c-0.4,0.4-0.7,0.5-1.2,0.5c-0.4,0-0.5-0.2-0.7-0.4s-0.4-0.5-0.4-0.7c0-0.2,0-0.4,0.2-0.5c0.2-0.2,0.2-0.4,0.4-0.4
				c0.2-0.2,0.4-0.2,0.5-0.4c0.2,0,0.4-0.2,0.5-0.2l0.7-0.4v-0.2c0-0.5-0.2-0.9-0.7-0.9c-0.5,0-0.9,0.2-1.4,0.7v-1.1
				c0.4-0.4,0.9-0.7,1.4-0.7c0.5,0,0.9,0.2,1.1,0.4c0.4,0.2,0.5,0.7,0.5,1.1v2.3c0,0.2,0,0.2,0.2,0.2h0.2c0,0,0.2-0.2,0.4-0.2v0.9
				H42.6z M41.2,95.6c-0.4,0.2-0.7,0.4-0.9,0.4C40,96.1,40,96.3,40,96.6c0,0.2,0,0.4,0.2,0.5c0.2,0.2,0.2,0.2,0.4,0.2
				c0.4,0,0.5-0.2,0.7-0.4V95.6z"/>
			<path fill="#FFFFFF" d="M46.8,94h-0.9c0.2,0.2,0.4,0.4,0.4,0.5c0,0.2,0.2,0.4,0.2,0.5c0,0.2,0,0.4-0.2,0.5c0,0.2-0.2,0.4-0.4,0.5
				s-0.4,0.2-0.5,0.4c-0.2,0-0.4,0.2-0.5,0.2c-0.2,0-0.4,0-0.5,0.2c-0.2,0-0.2,0.2-0.2,0.4c0,0.2,0.4,0.4,1.2,0.5
				c0.5,0.2,0.7,0.2,1.1,0.5c0.2,0.2,0.4,0.5,0.4,0.9c0,0.9-0.7,1.4-2.1,1.4c-0.5,0-1.1-0.2-1.4-0.4c-0.4-0.2-0.5-0.5-0.5-1.1
				c0-0.7,0.4-1.1,1.1-1.2c-0.4-0.2-0.4-0.4-0.4-0.5c0-0.2,0-0.4,0.2-0.4c0.2-0.2,0.4-0.2,0.5-0.2l0,0c-0.4-0.2-0.5-0.4-0.7-0.5
				c-0.2-0.2-0.2-0.5-0.2-0.9c0-1.1,0.7-1.6,1.9-1.6H47V94H46.8z M45.8,94.9c0-0.2,0-0.4-0.2-0.5s-0.4-0.2-0.5-0.2s-0.5,0-0.5,0.2
				C44,94.5,44,94.7,44,94.9c0,0.2,0,0.4,0.2,0.5c0.2,0.2,0.4,0.2,0.7,0.2c0.2,0,0.5,0,0.5-0.2C45.6,95.4,45.6,95,45.8,94.9z
				 M46.1,98.7c0-0.2,0-0.4-0.2-0.4c-0.2-0.2-0.2-0.2-0.4-0.2C45.2,98,44.9,98,44.7,98c-0.4,0-0.5,0-0.7,0.2s-0.4,0.4-0.4,0.5
				c0,0.5,0.4,0.7,1.2,0.7C45.6,99.4,46.1,99.3,46.1,98.7z"/>
			<path fill="#FFFFFF" d="M50.2,94.5c-0.5-0.4-0.9-0.5-1.2-0.5s-0.5,0.2-0.5,0.4s0,0.2,0.2,0.4c0.2,0.2,0.4,0.4,0.7,0.5
				c0.4,0.2,0.5,0.5,0.7,0.7s0.2,0.4,0.2,0.7c0,0.4-0.2,0.7-0.4,0.9c-0.2,0.2-0.5,0.4-1.1,0.4s-1.1-0.2-1.4-0.4v-1.1
				c0.5,0.4,1.1,0.5,1.4,0.5c0.2,0,0.4,0,0.5-0.2c0.2,0,0.2-0.2,0.2-0.4v-0.2l-0.2-0.2c-0.2-0.2-0.4-0.4-0.7-0.4
				c-0.2-0.2-0.5-0.4-0.7-0.5c-0.4-0.2-0.4-0.5-0.4-0.9s0.2-0.7,0.4-0.9c0.2-0.2,0.5-0.4,1.1-0.4c0.4,0,0.9,0.2,1.2,0.4
				C50.2,93.5,50.2,94.5,50.2,94.5z"/>
			<path fill="#FFFFFF" d="M54.7,97.5c-0.4,0.2-0.7,0.4-0.9,0.4s-0.4,0-0.4-0.2c-0.2,0-0.2-0.2-0.2-0.4c-0.4,0.4-0.7,0.5-1.2,0.5
				c-0.4,0-0.5-0.2-0.7-0.4c-0.2-0.2-0.4-0.4-0.4-0.7c0-0.2,0-0.4,0.2-0.5c0.2-0.2,0.2-0.4,0.4-0.4c0.2-0.2,0.4-0.2,0.5-0.4
				c0.2,0,0.4-0.2,0.5-0.2l0.7-0.4v-0.2c0-0.5-0.2-0.9-0.7-0.9c-0.5,0-0.9,0.2-1.4,0.7v-1.1c0.4-0.4,0.9-0.7,1.4-0.7
				c0.5,0,0.9,0.2,1.1,0.4c0.4,0.2,0.5,0.7,0.5,1.1v2.3c0,0.2,0,0.2,0.2,0.2h0.2c0,0,0.2-0.2,0.4-0.2v0.9H54.7z M53.3,95.6
				c-0.4,0.2-0.7,0.4-0.9,0.4c-0.4,0.2-0.4,0.4-0.4,0.7c0,0.2,0,0.4,0.2,0.5c0.2,0.2,0.2,0.2,0.4,0.2c0.4,0,0.5-0.2,0.7-0.4V95.6z"
				/>
			<path fill="#FFFFFF" d="M56.3,93.3v0.5c0.5-0.5,0.9-0.7,1.2-0.7c0.5,0,1.1,0.4,1.4,0.9c0.2-0.2,0.4-0.4,0.7-0.5
				c0.2-0.2,0.5-0.2,0.9-0.2c0.5,0,0.9,0.2,1.1,0.5C62,94.2,62,94.5,62,95v2.8h-0.9V95c0-0.4-0.2-0.7-0.4-0.9C60.6,94,60.4,94,60,94
				c-0.2,0-0.4,0-0.5,0.2c-0.2,0.2-0.4,0.2-0.5,0.4v3.3h-0.9V95c0-0.4,0-0.7-0.2-0.9C57.7,94,57.6,94,57.4,94s-0.4,0-0.5,0.2
				c-0.2,0.2-0.4,0.2-0.5,0.5V98h-0.9v-4.8H56.3z"/>
			<path fill="#FFFFFF" d="M64.1,93.8L64.1,93.8c0.4-0.5,0.9-0.7,1.2-0.7c0.4,0,0.7,0.2,1.1,0.5c0.4,0.4,0.4,0.7,0.4,1.4v2.8h-0.9
				V95c0-0.4,0-0.7-0.2-0.9c-0.2-0.2-0.4-0.4-0.5-0.4s-0.4,0-0.5,0.2c-0.2,0.2-0.4,0.4-0.5,0.5v3.3h-0.9V91h0.9
				C64.1,91,64.1,93.8,64.1,93.8z"/>
			<path fill="#FFFFFF" d="M71.6,97.3c-0.5,0.4-1.1,0.5-1.8,0.5c-0.7,0-1.2-0.2-1.6-0.7c-0.4-0.5-0.5-1.1-0.5-1.6
				c0-0.7,0.2-1.2,0.5-1.6c0.4-0.4,0.9-0.7,1.4-0.7c1.2,0,1.8,0.9,1.9,2.5h-3c0.2,0.9,0.7,1.4,1.4,1.4c0.5,0,1.1-0.2,1.6-0.5
				C71.6,96.6,71.6,97.3,71.6,97.3z M70.9,95c0-0.7-0.4-1.1-1.1-1.1c-0.7,0-1.1,0.4-1.2,1.1H70.9z"/>
			<path fill="#FFFFFF" d="M73.9,93.3h1.4v0.9h-1.4v2.3c0,0.2,0,0.4,0.2,0.5c0.2,0.2,0.2,0.2,0.4,0.2c0.4,0,0.7-0.2,0.9-0.4v0.9
				C75,97.9,74.6,98,74.3,98c-0.5,0-0.9-0.2-1.1-0.4c-0.2-0.2-0.4-0.5-0.4-1.1v-2.5h-0.7V94l1.6-1.6v0.9H73.9z"/>
			<path fill="#FFFFFF" d="M107.7,60.6c0,0,7.6-1.2,13.4-3.7c5.6-2.5,6-4,7-5.3c4.2,4.4,6,7.6,6.9,9c0.9,1.4,5.5,10.2,6,14.4
				c-3.9,6-8.1,9.5-12.8,13.7c-4.8,4.2-10.6,8.8-16.2,11.6c0,0-13.2,5.8-18,7.7c-4.9,1.9,10-4.6,10-4.6l-16.5,5.1l13.4-4.6l-9.3,2.3
				c0,0,10.9-2.6,14.8-4.4c3.7-1.8,6-2.8,7-3.3c1.1-0.5,5.8-3.7,12.1-9.5c3-2.6,6.3-6.5,6.3-6.5c2.1-2.3,4.8-6,6-8.8
				c1.2-2.8,1.1-3,1.1-3c-1.1-2.6-2.6-5.5-4.9-8.6c-2.3-3-4.8-5.5-6.2-6.2c0,0-4.8,2.5-7.2,3c-2.3,0.5-7.2,1.8-8.6,1.8
				c0.9,1.6,1.6,3.7,2.5,6.3c0.7,2.6,1.2,7,1.4,9.7c0.2,3.5-0.2,7-0.9,10.4c-1.1,4.4-2.5,9.2-3.7,12.1c1.2-5.1,1.2-9.9,1.4-15.3
				c0.2-2.5,0-6.5-1.1-11.3c-1.1-5.1-3-10-3.3-10.7C108.1,61.3,107.7,60.6,107.7,60.6z"/>
			<path fill="#FFFFFF" d="M119.9,87.8c4.4-7.2,7.4-16.7,7.6-25.2"/>
		</g>
		<g>
			<path fill="#FFFFFF" d="M34.9,119.2l1.1,3H34L34.9,119.2z M34.1,124.6v-0.4h-1.1l0.7-1.9h2.3l0.7,1.9h-1.1v0.4h3v-0.4h-0.9
				l-2.3-7h-0.4l-2.5,7h-0.9v0.4H34.1z"/>
			<polygon fill="#FFFFFF" points="47.7,117.8 48.8,117.8 48.8,117.4 46.1,117.4 44.5,122.3 43.1,117.4 40.5,117.4 40.5,117.8
				41.5,117.8 41.5,124.3 40.5,124.3 40.5,124.6 42.8,124.6 42.8,124.3 41.9,124.3 41.9,117.9 41.9,117.9 43.8,124.6 44.2,124.6
				46.3,117.9 46.3,117.9 46.3,124.3 45.4,124.3 45.4,124.6 48.8,124.6 48.8,124.3 47.7,124.3 			"/>
			<path fill="#FFFFFF" d="M50,122c0-0.7-0.2-1.4,0.7-1.4c0.9,0,0.7,0.7,0.7,1.4H50z M52.3,122.2c0.2,0,0.2,0,0.2-0.2
				c0-1.1-0.9-1.8-1.9-1.8s-2.1,1.1-2.1,2.3c0,1.1,0.9,2.1,1.9,2.1s1.8-0.5,1.9-1.4h-0.2c-0.2,0.7-0.7,1.2-1.6,1.2s-0.9-0.7-0.9-1.4
				v-0.9C49.6,122.2,52.3,122.2,52.3,122.2z"/>
			<path fill="#FFFFFF" d="M54.4,120.2c-0.7,0-1.2,0-1.8,0v0.4h0.7v3.7h-0.7v0.4h2.3v-0.4h-0.5v-2.1c0-0.7,0.5-1.6,1.1-1.6
				c0.7,0,0.5,0.5,0.5,1.1v2.5h-0.5v0.4h2.3v-0.4h-0.5V122c0-0.7,0.4-1.6,1.1-1.6c0.5,0,0.4,0.5,0.4,0.7v2.8h-0.5v0.4h2.3v-0.4h-0.7
				v-2.1c0-1.1,0.2-1.9-1.2-1.9c-0.5,0-1.1,0.4-1.4,0.9c-0.2-0.5-0.7-0.9-1.2-0.9c-0.7,0-1.2,0.4-1.4,1.1l0,0
				C54.4,120.9,54.4,120.2,54.4,120.2z"/>
			<path fill="#FFFFFF" d="M60.9,124.3h-0.7v0.4c0.5,0,1.2,0,1.9,0v-0.7c0.4,0.4,0.7,0.7,1.2,0.7c1.2,0,1.9-1.1,1.9-2.1
				c0-1.1-0.9-2.3-1.9-2.3c-0.5,0-0.9,0.4-1.2,0.7v-3.7c-0.5,0.2-1.2,0.2-1.9,0.2v0.4h0.7V124.3z M64.1,123.6c0,0.5-0.2,1.1-0.9,1.1
				c-0.7,0-1.2-0.5-1.2-1.2V122c0-0.7,0.5-1.2,1.2-1.2c0.5,0,0.7,0.5,0.7,1.1v1.8H64.1z"/>
			<path fill="#FFFFFF" d="M66.7,122c0-0.7-0.2-1.4,0.7-1.4c0.9,0,0.7,0.7,0.7,1.4H66.7z M69.2,122.2c0.2,0,0.2,0,0.2-0.2
				c0-1.1-0.9-1.8-1.9-1.8c-1.1,0-2.1,1.1-2.1,2.3c0,1.1,0.9,2.1,1.9,2.1c1.1,0,1.8-0.5,1.9-1.4H69c-0.2,0.7-0.7,1.2-1.6,1.2
				s-0.9-0.7-0.9-1.4v-0.9C66.5,122.2,69.2,122.2,69.2,122.2z"/>
			<path fill="#FFFFFF" d="M71.5,120.2c-0.7,0-1.2,0-1.8,0v0.4h0.7v3.7h-0.5v0.4h2.6v-0.4h-0.9v-1.1c0-1.4,0.2-1.9,0.7-2.3
				c0.2-0.2,0.2-0.2,0.4-0.2c0.2,0,0.2,0,0,0.2v0.2c0,0.2,0.2,0.5,0.5,0.5s0.7-0.2,0.7-0.5c0-0.5-0.4-0.7-0.9-0.7
				c-0.7,0-1.1,0.5-1.4,1.2v-1.4H71.5z"/>
			<path fill="#FFFFFF" d="M75.9,122.5c0,1.2,1.1,2.1,2.1,2.1c1.2,0,2.1-1.1,2.1-2.1c0-1.2-1.1-2.3-2.1-2.3
				C76.7,120.2,75.9,121.3,75.9,122.5z M78.9,122.5c0,1.4,0,1.9-0.9,1.9s-0.9-0.5-0.9-1.9c0-1.2,0-2.1,0.9-2.1
				C79,120.6,78.9,121.3,78.9,122.5z"/>
			<path fill="#FFFFFF" d="M82.2,118.6c0-0.4,0.4-1.2,0.7-1.2c0.4,0,0.4,0.2,0.4,0.4c-0.2,0.2-0.4,0.2-0.4,0.4
				c0,0.4,0.2,0.5,0.5,0.5s0.5-0.2,0.5-0.5c0-0.5-0.5-0.9-1.1-0.9c-0.2,0-0.4,0-0.5,0.2c-1.2,0.5-1.4,1.9-1.4,3h-0.9v0.4H81v3.7
				h-0.9v0.4h2.8v-0.4H82v-3.7h1.1v-0.4H82v-1.8H82.2z"/>
			<path fill="#FFFFFF" d="M88.7,117.8h1.1v-0.4h-3.5v0.4h1.1v6.5c0,0.5-0.2,0.9-0.7,0.9c-0.2,0-0.5,0-0.5-0.2s0-0.2,0.2-0.4
				c0,0,0.2-0.2,0.2-0.4c0-0.4-0.2-0.5-0.5-0.5c-0.4,0-0.5,0.4-0.5,0.7c0,0.4,0.2,0.7,0.5,0.9c0.4,0.2,0.5,0.2,0.9,0.2
				c0.9,0,1.6-0.5,1.8-1.2c0.2-0.5,0.2-1.6,0.2-2.1C88.7,122.2,88.7,117.8,88.7,117.8z"/>
			<path fill="#FFFFFF" d="M92.6,119.2l1.1,3h-1.9L92.6,119.2z M91.9,124.6v-0.4h-1.1l0.7-1.9h2.3l0.7,1.9h-1.2v0.4h3.3v-0.4h-0.9
				l-2.3-7h-0.4l-2.5,7h-0.9v0.4H91.9z"/>
			<path fill="#FFFFFF" d="M104.4,117.8l-0.7,1.8l-0.7-1.8H104.4z M98.2,117.8h0.7l2.5,7h0.4l1.2-3.3l1.2,3.3h0.4l2.5-7h0.7v-0.4
				h-1.9v0.4h0.9l-1.8,5.1l-1.1-2.8l0.9-2.3h0.7v-0.4h-7v0.4H98.2z M100.3,117.8h1.4l1.2,3.3l-0.7,1.9L100.3,117.8z"/>
			<path fill="#FFFFFF" d="M107,122.5c0,1.2,1.1,2.1,2.1,2.1c1.2,0,2.1-1.1,2.1-2.1c0-1.2-1.1-2.3-2.1-2.3
				C108.1,120.2,107,121.3,107,122.5z M110.2,122.5c0,1.4,0,1.9-0.9,1.9c-0.9,0-0.9-0.5-0.9-1.9c0-1.2,0-2.1,0.9-2.1
				C110.2,120.6,110.2,121.3,110.2,122.5z"/>
			<path fill="#FFFFFF" d="M113.4,120.2c-0.7,0-1.2,0-1.8,0v0.4h0.7v3.7h-0.5v0.4h2.6v-0.4h-0.9v-1.1c0-1.4,0.2-1.9,0.7-2.3
				c0.2-0.2,0.2-0.2,0.4-0.2c0.2,0,0.2,0,0,0.2v0.2c0,0.2,0.2,0.5,0.5,0.5c0.4,0,0.7-0.2,0.7-0.5c0-0.5-0.4-0.7-0.9-0.7
				c-0.7,0-1.1,0.5-1.4,1.2v-1.4H113.4z"/>
			<path fill="#FFFFFF" d="M118.1,124.6v-0.4h-0.7v-7c-0.5,0.2-1.2,0.2-1.9,0.2v0.4h0.7v6.5h-0.7v0.4
				C115.5,124.6,118.1,124.6,118.1,124.6z"/>
			<path fill="#FFFFFF" d="M121.3,124.6c0.7-0.2,1.2,0,1.9,0v-0.4h-0.7v-7c-0.5,0.2-1.2,0.2-1.9,0.2v0.4h0.7v3.5l0,0
				c-0.2-0.5-0.5-0.9-1.2-0.9c-1.1,0-1.9,1.2-1.9,2.3c0,0.5,0.2,1.2,0.7,1.6c0.4,0.4,0.7,0.5,1.2,0.5c0.7,0,1.1-0.4,1.4-0.9l0,0v0.7
				H121.3z M119.3,121.6c0-0.5,0-1.2,0.7-1.2c0.9,0,1.2,0.9,1.2,1.6v1.2c0,0.7-0.5,1.4-1.2,1.4c-0.5,0-0.7-0.5-0.7-0.9V121.6z"/>
			<polygon fill="#FFFFFF" points="123,120.6 123.4,120.6 125,124.8 125.3,124.8 126.2,122 127.4,124.8 127.8,124.8 129,120.6
				129.7,120.6 129.7,120.4 128.1,120.4 128.1,120.6 128.8,120.6 128,123.2 126.7,120.4 126.6,120.4 125.5,123.2 124.6,120.6
				125.3,120.6 125.3,120.4 123,120.4 			"/>
			<path fill="#FFFFFF" d="M132,124.6v-0.4h-0.7v-4c-0.7,0-1.2,0-1.9,0v0.4h0.9v3.7h-0.7v0.4C129.5,124.6,132,124.6,132,124.6z
				 M131.3,118.3c0-0.4-0.4-0.5-0.5-0.5c-0.4,0-0.5,0.4-0.5,0.5c0,0.4,0.2,0.7,0.5,0.7C131,119,131.3,118.6,131.3,118.3z"/>
			<path fill="#FFFFFF" d="M135.4,124.6c0.7-0.2,1.2,0,1.9,0v-0.4h-0.7v-7c-0.5,0.2-1.2,0.2-1.9,0.2v0.4h0.7v3.5l0,0
				c-0.2-0.5-0.5-0.9-1.2-0.9c-1.1,0-1.9,1.2-1.9,2.3c0,0.5,0.2,1.2,0.7,1.6c0.4,0.4,0.7,0.5,1.2,0.5c0.7,0,1.1-0.4,1.4-0.9l0,0v0.7
				H135.4z M133.2,121.6c0-0.5,0-1.2,0.7-1.2c0.9,0,1.2,0.9,1.2,1.6v1.2c0,0.7-0.5,1.4-1.2,1.4c-0.5,0-0.7-0.5-0.7-0.9V121.6z"/>
			<path fill="#FFFFFF" d="M138.3,122c0-0.7-0.2-1.4,0.7-1.4c0.9,0,0.7,0.7,0.7,1.4H138.3z M140.8,122.2c0.2,0,0.2,0,0.2-0.2
				c0-1.1-0.9-1.8-1.8-1.8c-1.1,0-2.1,1.1-2.1,2.3c0,1.1,0.9,2.1,1.9,2.1c1.1,0,1.8-0.5,1.9-1.4h-0.2c-0.2,0.7-0.7,1.2-1.6,1.2
				c-0.9,0-0.9-0.7-0.9-1.4v-0.9C138.3,122.2,140.8,122.2,140.8,122.2z"/>
			<path fill="#FFFFFF" d="M22.4,124.1l-0.4,0.5V123l0,0h0.9L22.4,124.1z M23.1,122.9v-1.6c0.2,0,0.7,0,0.9,0L23.1,122.9z
				 M24.8,119.7L24.8,119.7l-0.9,1.6v-1.6H24.8z M25.7,121.1l1.9,3.3h-2.5h-3h-0.9h-1.9l1.8-3.2l1.8-3.2l0.5-0.9L25.7,121.1z"/>
		</g>
		<line fill="none" stroke="#FFFFFF" stroke-width="0.5482" x1="19.2" y1="111.9" x2="141.3" y2="111.9"/>
	</g>
</g>
</svg>
