<?xml version="1.0" standalone="no"?> <!DOCTYPE svg PUBLIC "-//W3C//DTD SVG 1.0//EN" "http://www.w3.org/TR/2001/REC-SVG-20010904/DTD/svg10.dtd" > <svg xmlns="http://www.w3.org/2000/svg" width="100%" height="100%">
<defs >
<font id="lipstickscriptsskbold" horiz-adv-x="407" ><font-face
    font-family="LipstickScriptSSKBold"
    units-per-em="1000"
    panose-1="0 0 7 0 0 0 0 0 0 0"
    ascent="817"
    descent="-580"
    alphabetic="0" />
<missing-glyph horiz-adv-x="500" d="M63 0V800H438V0H63ZM125 63H375V738H125V63Z" />
<glyph unicode=" " glyph-name="space" horiz-adv-x="473" />
<glyph unicode="!" glyph-name="exclam" horiz-adv-x="312" d="M222 672Q222 589 196 425T169 205Q169 193 174 172T179 138Q179 122 168 108T139 94Q91 94 91 166Q91 220 139 740Q155 757 180 757Q222 757 222 672ZM166 -86Q166 -145 126 -145Q108 -145 95 -125T82
-86Q82 -70 89 -55Q97 -35 111 -35Q166 -35 166 -86Z" />
<glyph unicode="&quot;" glyph-name="quotedbl" horiz-adv-x="226" d="M235 680Q235 673 202 607T165 499Q161 445 132 445Q112 445 101 472Q94 491 94 515Q94 562 122 635Q156 720 194 720Q210 720 222 708T235 680ZM142 752Q142 731 118 654T93 523Q93 504 83
487Q71 466 53 466Q14 466 14 541Q14 584 33 646Q59 729 63 748Q74 807 108 807Q142 807 142 752Z" />
<glyph unicode="#" glyph-name="numbersign" horiz-adv-x="647" d="M717 450Q717 423 577 374Q495 345 401 320L399 281Q398 254 412 228T426 190Q426 174 412 159T380 143Q349 143 333 205Q322 248 321 297L264 279Q261 239 261 140Q261 97 216 97Q196 97 180
107T164 136Q164 150 171 183T178 234L179 257Q108 241 72 241Q47 241 24 254Q-3 268 -3 292Q-3 332 48 332Q56 332 71 331T91 330Q127 330 186 346L189 436Q100 403 72 403Q50 403 31 418T11 454L24 476Q56 492 108 507Q152 518 196 530Q198 590 200 651Q209 738
244 738Q287 738 287 654Q287 632 284 600Q280 560 280 559L336 574Q338 623 341 671Q350 739 383 739Q431 739 431 669Q431 665 425 602Q473 611 601 627Q630 606 630 594Q630 580 536 551Q475 533 414 515L407 402Q477 421 548 440Q638 465 688 465Q717 465 717
450ZM329 483L274 467L269 369L326 382L329 483Z" />
<glyph unicode="$" glyph-name="dollar" horiz-adv-x="550" d="M570 204Q570 59 349 -35Q350 -47 357 -79Q364 -107 364 -122Q364 -142 352 -157T320 -172Q285 -172 276 -142Q274 -133 273 -86L272 -62L246 -68Q246 -94 253 -150T261 -233Q261 -282 213 -282Q177
-282 169 -194Q169 -192 166 -75Q120 -74 88 -57Q49 -35 49 7Q49 34 66 55T108 77Q121 77 140 66T159 43Q137 15 122 6Q144 -4 165 -4Q165 114 181 328Q87 344 48 361Q-31 394 -31 457Q-31 504 68 561Q98 579 207 629Q207 647 204 681T201 732Q201 769 243 769Q269
769 280 746Q285 771 312 771Q348 771 358 740Q361 728 363 678L399 681Q428 684 454 670T481 627Q481 610 469 596T440 581Q416 581 411 609H410Q393 610 363 603Q360 527 352 374Q570 314 570 204ZM280 528Q275 483 265 395L273 394Q275 439 280 528ZM200 545Q124
509 119 507Q56 474 56 454Q56 433 188 410Q190 432 194 477T200 545ZM482 205Q482 254 349 293Q344 185 345 101V53Q482 130 482 205ZM269 313L258 314Q247 151 245 11L267 18Q265 68 265 125Q265 197 269 313Z" />
<glyph unicode="%" glyph-name="percent" horiz-adv-x="548" d="M303 508Q303 442 227 383Q155 328 87 328Q53 328 28 347Q0 368 0 401Q0 431 46 495T121 576Q163 600 204 600Q245 600 274 575T303 508ZM560 688Q560 688 544 658Q485 635 452 566Q329 312 272
184Q137 -116 125 -207Q117 -271 70 -271Q70 -271 40 -257Q27 -232 27 -213Q27 -184 180 169Q308 465 363 582Q439 744 511 744Q532 744 546 727T560 688ZM459 38Q459 -12 418 -59T328 -107Q294 -107 274 -84T253 -25Q253 9 290 83Q329 162 357 162Q379 162 388
136Q420 128 439 100T459 38ZM223 504Q223 520 201 520Q169 520 151 498Q146 491 130 457Q119 435 104 435Q101 435 96 436Q84 421 84 414Q84 403 100 403Q124 403 173 442T223 504ZM383 31Q383 39 378 58Q378 59 377 60Q366 60 348 22T330 -30L331 -32Q350 -25
366 -7T383 31Z" />
<glyph unicode="&amp;" glyph-name="ampersand" horiz-adv-x="485" d="M456 221Q456 170 374 108Q300 53 216 26Q224 16 230 -2Q237 -27 248 -113T259 -228Q259 -268 226 -265L215 -264Q181 -262 165 -164Q154 -98 154 -28Q154 0 159 14Q156 14 154 14Q83 14 38
51Q-12 91 -12 159Q-12 270 139 369Q72 386 72 431Q72 471 131 521Q183 565 243 587Q223 599 206 678Q193 742 193 777Q193 817 233 817Q271 817 280 768Q282 760 284 688Q284 678 286 655T289 620Q289 606 277 596Q283 596 288 596Q312 596 329 582T347 544Q347
532 338 523T318 513Q312 513 303 518T288 523Q271 523 221 495T171 452Q176 442 203 441Q161 442 240 442Q294 442 300 406Q283 375 224 330Q144 271 127 254Q80 208 80 160Q80 100 156 100Q213 100 277 136Q310 155 373 204Q420 240 435 240Q440 240 448 234T456
221Z" />
<glyph unicode="&apos;" glyph-name="quotesingle" horiz-adv-x="155" d="M133 749Q133 732 111 642Q102 604 93 566Q76 514 49 514Q24 514 24 590Q24 617 40 689Q57 768 71 780Q82 790 98 790Q133 790 133 749Z" />
<glyph unicode="(" glyph-name="parenleft" horiz-adv-x="343" d="M318 738Q318 729 251 633Q169 518 126 420Q59 271 59 130Q59 54 76 -19Q102 -130 156 -130Q242 -130 242 -182Q242 -204 224 -221T183 -239Q82 -239 24 -94Q-22 18 -22 135Q-22 254 22 386Q48
466 127 608Q225 784 274 784Q290 784 304 769T318 738Z" />
<glyph unicode=")" glyph-name="parenright" horiz-adv-x="408" d="M357 193Q357 46 277 -84Q202 -204 72 -289Q-35 -358 -57 -358Q-102 -358 -102 -312Q-102 -286 -49 -261Q-8 -242 33 -224Q143 -152 204 -48Q269 61 269 187Q269 310 218 476Q155 683 62 710Q31
718 23 723Q2 734 2 755Q2 799 47 799Q138 799 216 673Q279 572 321 413Q357 277 357 193Z" />
<glyph unicode="*" glyph-name="asterisk" horiz-adv-x="500" d="M484 571Q484 556 473 543T446 530Q435 530 421 540T396 551Q372 551 275 529L264 498Q270 481 293 432Q325 412 325 381Q325 369 314 360T290 350Q261 350 231 403Q221 368 211 332Q195 283 172
283Q155 283 141 295T126 325Q126 341 142 355Q158 404 185 503Q172 499 113 473Q58 448 52 448Q16 448 16 482Q16 515 72 540Q92 549 160 570Q147 599 135 629Q117 675 117 687Q117 713 149 713Q180 713 222 614Q236 651 249 688Q270 732 303 732Q342 732 342
698Q342 682 328 652Q316 629 305 607Q354 613 394 613Q484 613 484 571Z" />
<glyph unicode="+" glyph-name="plus" horiz-adv-x="631" d="M635 493Q635 464 616 454Q604 448 572 448Q508 448 283 372Q283 352 285 283Q286 228 286 194Q286 135 250 135Q217 135 207 163Q201 178 201 217Q201 286 199 344L49 287Q32 287 20 301T7 333Q7 333
12 353Q102 396 197 429Q193 558 193 552Q193 622 240 622Q282 622 282 518Q282 504 281 483T280 456Q508 532 596 529H599V529Q612 529 623 518T635 493Z" />
<glyph unicode="," glyph-name="comma" horiz-adv-x="236" d="M150 35Q150 19 51 -163H52Q76 -162 76 -185Q76 -215 46 -236T-16 -258Q-46 -258 -46 -223Q-46 -176 59 27Q82 73 109 73Q125 73 137 62T150 35Z" />
<glyph unicode="-" glyph-name="hyphen" horiz-adv-x="519" d="M492 279Q492 247 448 240Q440 239 381 239Q282 239 190 219Q91 199 72 199Q20 199 20 237Q20 318 395 318Q441 318 454 315Q492 308 492 279Z" />
<glyph unicode="." glyph-name="period" horiz-adv-x="224" d="M154 21Q154 -36 99 -36Q75 -36 61 -20T47 20Q47 43 64 61T105 79Q127 79 140 62T154 21Z" />
<glyph unicode="/" glyph-name="slash" horiz-adv-x="341" d="M400 709Q400 674 375 643Q336 594 332 586Q229 393 125 129Q44 -79 28 -206Q23 -254 -3 -254Q-26 -254 -42 -243T-59 -209Q-59 -143 28 98Q114 335 207 527Q311 744 351 744Q368 744 383 736Q400
725 400 709Z" />
<glyph unicode="0" glyph-name="zero" horiz-adv-x="636" d="M649 422Q649 329 564 221Q485 122 370 54Q253 -17 160 -17Q85 -17 39 38Q-5 89 -5 165Q-5 217 36 327Q81 446 137 528Q204 626 262 626Q276 626 289 620Q360 640 428 640Q523 640 586 579T649 422ZM561
424Q561 485 521 522T418 559Q359 559 279 523Q184 481 184 429Q184 410 213 398T243 376Q243 362 224 354T188 345Q165 345 143 361Q82 243 82 164Q82 121 105 95T172 68Q239 68 332 127T490 266Q561 354 561 424Z" />
<glyph unicode="1" glyph-name="one" horiz-adv-x="636" d="M454 646Q454 550 421 355T387 63Q387 55 392 38T398 12Q398 -5 385 -18T354 -32Q295 -32 295 24Q295 107 319 269Q339 394 359 519Q187 333 173 333Q158 333 148 354Q141 370 141 386Q141 403 259 532Q373
657 400 678H405Q421 679 437 671T454 646Z" />
<glyph unicode="2" glyph-name="two" horiz-adv-x="636" d="M600 94Q600 72 586 57T549 41Q542 41 530 47T510 53Q443 53 315 3T140 -48Q95 -48 95 -1Q95 19 180 126Q299 278 337 332Q421 456 421 515Q421 546 387 563Q360 576 325 576Q270 576 226 548Q200 531
168 495Q142 467 134 467Q116 467 102 478T88 506Q88 570 179 619Q258 660 329 660Q398 660 449 624Q505 583 505 516Q505 459 455 369Q419 302 349 208Q298 142 247 75Q456 143 542 143Q566 143 583 130T600 94Z" />
<glyph unicode="3" glyph-name="three" horiz-adv-x="636" d="M566 111Q566 41 495 -75Q428 -185 341 -269Q249 -358 193 -358Q171 -358 153 -341T134 -302Q134 -271 163 -261Q189 -257 215 -253Q333 -161 391 -91Q479 18 479 125Q479 203 386 234Q383 235 215
266Q122 284 122 328Q122 341 226 432Q288 487 351 541Q150 521 113 521Q95 521 80 537T65 571Q65 590 84 602Q99 612 119 612Q163 612 250 619T381 627Q425 627 440 625Q477 617 477 590Q477 546 389 461Q326 404 263 348Q388 337 466 287Q566 224 566 111Z" />
<glyph unicode="4" glyph-name="four" horiz-adv-x="636" d="M604 352Q604 321 552 321Q540 321 519 322T490 324L445 323Q434 251 423 179Q410 92 410 36Q410 29 415 12T421 -14Q421 -61 382 -61Q353 -61 332 -44T311 2Q311 60 329 157Q357 304 358 312Q291 300
225 288Q144 273 91 273Q71 273 56 286T40 320Q40 333 68 362Q88 381 108 400Q191 485 258 625Q289 692 290 692Q316 740 336 740Q356 740 371 719Q383 700 383 680Q383 653 303 525Q228 405 198 373Q255 383 368 397Q378 471 388 544Q408 658 439 658Q459 658
475 641T491 602Q491 566 476 501Q457 415 455 398Q604 391 604 352Z" />
<glyph unicode="5" glyph-name="five" horiz-adv-x="636" d="M723 595Q723 560 678 560Q670 560 657 564T637 568Q575 568 454 555T272 541Q234 541 214 548Q214 529 198 507Q198 507 169 472Q298 470 385 435Q508 384 508 276Q508 166 413 74T208 -19Q161 -19
121 7Q76 36 76 80Q76 99 89 111T122 124Q154 124 172 71Q191 62 213 62Q286 62 353 135T420 281Q420 387 213 387Q185 387 142 385T88 383Q64 383 49 397T33 436Q33 441 36 446V445Q46 467 97 529Q152 596 165 596Q172 596 181 592Q184 615 220 621Q230 623 275
623Q337 623 463 636T652 649Q723 649 723 595Z" />
<glyph unicode="6" glyph-name="six" horiz-adv-x="636" d="M550 264Q550 167 444 68T240 -31Q106 -31 106 165Q106 303 158 422Q192 501 248 591Q328 717 373 717Q394 717 409 700T425 660Q425 640 414 632Q413 632 387 622T292 486Q238 387 215 332Q191 274
190 171Q223 244 296 307Q376 376 449 376Q497 376 523 345T550 264ZM469 268Q469 290 448 290Q397 290 324 211T250 79Q250 58 266 58Q311 58 390 139T469 268Z" />
<glyph unicode="7" glyph-name="seven" horiz-adv-x="636" d="M603 609Q603 586 581 566Q574 560 560 557Q542 552 537 550Q483 525 419 395L452 396L553 394Q574 376 574 354Q574 326 493 318Q439 316 384 313Q306 108 306 -40Q306 -83 265 -83Q244 -83 229 -68T213
-31Q213 20 241 138Q265 244 288 308Q269 305 235 305Q219 305 208 316T197 343Q197 373 248 384Q258 386 323 391Q369 489 428 566Q377 564 257 551Q147 538 88 538Q32 538 32 588Q32 647 448 647Q452 647 471 648T503 649Q603 649 603 609Z" />
<glyph unicode="8" glyph-name="eight" horiz-adv-x="636" d="M647 262Q647 187 558 116Q483 55 367 12Q260 -26 187 -26Q-2 -26 -2 129Q-2 242 110 320Q54 335 28 358Q-6 387 -6 440Q-6 568 125 627Q220 670 366 670Q435 670 489 641Q555 606 555 542Q555 471
460 413Q539 406 587 374Q647 334 647 262ZM472 535Q472 566 424 582Q389 593 348 593Q286 593 218 570Q129 540 129 492Q129 472 157 452Q180 439 202 425Q171 413 139 413Q102 413 79 437Q80 412 120 398Q150 388 182 388Q238 388 349 437Q472 492 472 535ZM561
256Q561 302 506 323Q468 338 413 338Q313 338 206 285Q79 222 79 133Q79 52 179 52Q263 52 403 115Q561 186 561 256Z" />
<glyph unicode="9" glyph-name="nine" horiz-adv-x="636" d="M596 372Q596 266 522 109T347 -161Q238 -283 156 -283Q141 -283 129 -273T117 -247L129 -222L204 -163Q371 -29 453 146Q486 216 501 313Q449 273 358 240T203 206Q132 206 84 245Q33 287 33 356Q33
466 139 550Q239 629 353 629Q465 629 530 557T596 372ZM501 438Q497 485 446 516Q401 543 350 543Q282 543 205 487Q122 427 122 361Q122 289 199 289Q270 289 366 334Q468 381 501 438Z" />
<glyph unicode=":" glyph-name="colon" horiz-adv-x="201" d="M147 387Q147 361 136 336Q122 303 100 303Q83 303 70 332Q59 356 59 376Q59 444 107 444Q147 444 147 387ZM141 -1Q141 -21 129 -43Q114 -67 95 -67Q48 -67 48 -12Q48 56 102 56Q141 56 141 -1Z" />
<glyph unicode=";" glyph-name="semicolon" horiz-adv-x="257" d="M195 386Q195 360 184 335Q171 303 148 303Q130 303 117 331Q106 355 106 376Q106 444 154 444Q195 444 195 386ZM185 35Q185 18 86 -163Q112 -162 112 -185Q112 -216 82 -237T20 -258Q-10 -258
-10 -223Q-10 -176 94 27Q118 73 144 73Q160 73 172 62T185 35Z" />
<glyph unicode="&lt;" glyph-name="less" horiz-adv-x="463" d="M470 135Q470 114 446 114Q417 114 347 135Q260 162 244 165Q187 175 129 184Q54 201 28 232Q5 259 5 274Q5 304 124 437T274 570Q311 570 311 538Q311 515 215 405T119 285Q119 275 168 263Q197
256 226 250Q325 225 366 211Q470 173 470 135Z" />
<glyph unicode="=" glyph-name="equal" horiz-adv-x="734" d="M709 428Q709 384 632 384Q539 384 334 336T43 287Q25 287 8 296Q-12 306 -12 322Q-12 334 0 352Q4 358 316 412T670 466Q685 466 697 454T709 428ZM728 288Q728 257 657 257Q564 257 367 208T80 159Q27
159 27 202Q27 235 69 244Q192 268 377 298Q604 334 673 334Q728 334 728 288Z" />
<glyph unicode="&gt;" glyph-name="greater" horiz-adv-x="499" d="M491 320Q491 289 394 223Q362 201 213 111Q113 50 109 35Q96 -17 57 -17Q40 -17 27 -7T13 20Q13 62 172 177Q274 246 376 315Q355 330 255 374Q135 425 91 449Q8 493 8 521Q8 539 21 553T52
568Q68 568 81 556T96 528Q491 387 491 320Z" />
<glyph unicode="?" glyph-name="question" horiz-adv-x="603" d="M568 644Q568 535 433 421Q362 360 203 267L193 268Q193 237 229 181T265 89Q265 66 250 50T212 33Q182 33 174 56Q170 67 170 102Q170 108 152 140Q129 180 118 209Q101 257 101 302V317Q216 361
330 442Q480 549 480 633Q480 670 456 683Q439 692 397 692Q315 692 241 659Q193 638 140 598Q97 565 91 565Q77 565 66 575T55 598Q55 663 198 723Q322 775 402 775Q568 775 568 644ZM276 -106Q276 -129 261 -149T224 -169Q202 -169 188 -153T173 -115Q173 -57
225 -57Q246 -57 261 -71T276 -106Z" />
<glyph unicode="@" glyph-name="at" horiz-adv-x="571" d="M564 527Q564 420 488 325T307 208Q231 121 176 121Q127 121 127 190Q127 255 168 314Q214 380 276 380Q306 380 323 354T337 298Q475 384 475 521Q475 608 420 608Q310 608 212 455Q122 315 122 198Q122
147 140 112Q162 66 208 66Q289 66 430 166Q443 209 478 209Q492 209 506 193T521 161Q521 115 385 46Q257 -17 200 -17Q118 -17 74 57Q37 119 37 207Q37 303 91 419T230 612Q324 697 421 697Q487 697 528 644Q564 596 564 527ZM241 243Q235 252 235 267Q235 273
236 280Q210 257 205 212Q226 225 241 243Z" />
<glyph unicode="A" glyph-name="A" horiz-adv-x="627" d="M626 345Q626 315 605 305Q592 299 559 299Q559 299 447 266L511 -3Q536 -27 536 -49Q536 -62 521 -77T492 -92Q447 -92 434 -40L367 241Q245 205 108 154Q91 106 74 58Q50 -7 21 -7Q5 -7 -7 3T-20 29Q-20
62 13 149Q-13 161 -13 190Q-13 235 54 250L258 696Q277 737 310 737Q337 737 381 560Q406 451 430 341L556 379Q574 385 585 385Q626 385 626 345ZM349 315Q318 445 286 544Q206 393 152 268Q278 293 349 315Z" />
<glyph unicode="B" glyph-name="B" horiz-adv-x="645" d="M623 261Q623 165 488 46T251 -74Q231 -74 218 -58T204 -22Q204 6 290 39Q408 84 449 113Q535 173 535 267Q535 311 421 334Q343 350 277 350Q196 350 121 320V270Q121 235 133 170T145 73Q145 19 105
19Q33 19 33 108Q33 119 34 140T35 172Q35 543 35 532Q-2 543 -2 579Q-2 612 34 637Q45 689 86 689Q110 689 120 670Q316 729 429 729Q523 729 523 676Q523 578 306 433Q424 426 503 396Q623 351 623 261ZM440 644Q440 651 422 651Q379 651 265 623Q141 592 128
570T115 466L116 421Q291 513 412 619L440 644Z" />
<glyph unicode="C" glyph-name="C" horiz-adv-x="730" d="M791 230Q791 182 525 86Q274 -4 197 -4Q110 -4 52 52T-7 195Q-7 282 81 410Q165 532 278 622Q399 717 484 717Q506 717 519 703T533 667Q533 633 467 616Q354 589 221 450Q82 305 82 196Q82 146 112 115T193
83Q273 83 403 133Q468 157 614 224Q721 273 744 273Q758 273 774 259T791 230Z" />
<glyph unicode="D" glyph-name="D" horiz-adv-x="658" d="M697 470Q697 346 497 189Q411 122 186 -13Q186 -34 170 -49T132 -64L108 -54Q76 -57 76 -20Q76 -8 80 13T84 38Q84 80 78 164T72 290Q72 343 89 609Q34 590 34 590Q11 590 -7 604T-25 641Q-25 684 99
708Q183 723 256 723Q394 723 528 664Q697 590 697 470ZM605 465Q605 547 471 600Q364 642 266 642Q216 642 188 636Q157 378 157 246Q157 166 171 79Q315 159 428 246Q605 381 605 465Z" />
<glyph unicode="E" glyph-name="E" horiz-adv-x="664" d="M746 253Q746 239 719 230Q634 205 464 143Q454 138 260 46Q81 -40 75 -40Q58 -40 35 -7T12 46Q12 118 21 262T31 480Q31 496 22 524T13 566Q13 607 70 607Q85 607 97 603Q205 645 313 686Q477 746 527
746Q578 746 578 709Q578 672 545 663Q537 661 487 661Q455 661 310 601Q216 561 122 520Q124 473 116 354Q369 462 408 462Q423 462 435 451T447 425Q447 403 303 339Q124 260 110 252Q100 133 101 114L102 73Q211 129 399 204Q627 296 690 296Q708 296 727 283T746
253Z" />
<glyph unicode="F" glyph-name="F" horiz-adv-x="538" d="M687 729Q687 701 657 689Q638 681 593 679T528 670Q337 611 184 542Q181 512 161 366Q360 462 493 462Q534 462 534 432Q534 417 522 402T495 382Q407 357 320 333Q228 306 148 253Q144 216 143 172Q143
143 143 94Q145 36 145 15Q145 -4 130 -16T97 -28Q53 -28 53 81Q53 114 57 168T63 231Q40 251 40 270Q40 295 69 319L85 503Q-11 470 -28 470Q-44 470 -55 484T-67 515Q-67 549 -5 570Q42 583 88 595Q94 661 136 661Q163 661 177 629Q403 710 412 713Q576 767 649
767Q665 767 676 756T687 729Z" />
<glyph unicode="G" glyph-name="G" horiz-adv-x="870" d="M859 454Q859 406 840 312T821 171Q821 159 824 154Q848 147 848 116Q848 98 821 58Q791 14 773 14Q731 14 731 121Q731 173 745 263Q761 363 763 406L737 396Q743 378 743 343Q743 260 645 156Q557 63
432 -5T224 -74Q119 -74 60 10Q7 84 7 193Q7 295 87 421Q161 539 266 623Q375 710 455 710Q475 710 492 699T509 669Q509 657 401 592Q270 513 201 441Q94 327 94 197Q94 124 124 74Q160 14 228 14Q284 14 386 71T564 199Q648 278 648 330Q648 339 641 347T624
356Q597 356 460 296T314 236Q298 236 282 253T265 286Q265 326 527 420Q775 510 832 510Q859 510 859 454Z" />
<glyph unicode="H" glyph-name="H" horiz-adv-x="664" d="M702 477Q702 431 659 431Q650 431 633 433T609 436Q596 436 495 417L492 265Q490 73 513 31Q529 1 529 -10Q529 -25 510 -37T475 -49Q403 -49 403 296Q403 327 403 364Q404 400 404 401Q312 383 129 345Q101
116 101 28Q101 -35 62 -35Q31 -35 20 -17Q11 -4 11 28Q11 88 24 184Q40 311 43 340Q15 357 15 380Q15 412 49 426Q51 469 49 537Q46 624 46 648Q46 695 99 695Q99 695 133 683Q149 662 149 591Q149 566 140 444L404 492Q406 602 407 605Q417 681 465 681L496 667Q502
643 502 613Q502 595 499 560T496 507Q611 523 655 523Q675 523 688 511T702 477Z" />
<glyph unicode="I" glyph-name="I" horiz-adv-x="203" d="M171 634Q171 592 162 525Q149 430 147 417Q141 351 138 244Q135 113 133 72Q150 43 150 20Q150 0 136 -12T101 -25Q59 -25 49 15Q46 28 46 89Q46 532 81 671Q91 715 124 715Q155 715 165 688Q171 673 171 634Z" />
<glyph unicode="J" glyph-name="J" horiz-adv-x="548" d="M539 607Q539 346 474 186Q379 -43 157 -43Q96 -43 39 -30Q-44 -10 -44 28Q-44 49 -30 62T5 75Q28 75 72 57T142 38Q290 38 365 152Q423 242 440 408Q447 481 447 672Q447 741 493 741Q541 741 541 652Q541
643 540 628T539 607Z" />
<glyph unicode="K" glyph-name="K" horiz-adv-x="603" d="M647 622Q647 594 615 574Q587 557 556 555Q504 553 350 494Q211 441 144 404Q203 308 319 214Q426 127 539 77Q567 65 594 52Q633 32 633 14Q633 -12 595 -12Q487 -12 337 95Q214 181 123 288Q112 122
112 29Q112 3 100 -17Q86 -42 62 -42Q29 -42 20 -12Q17 1 17 45Q17 139 35 353Q15 361 15 391Q15 426 45 451Q47 523 49 595Q60 698 109 698Q152 698 152 645Q152 646 141 497Q221 537 377 594Q556 658 614 658Q628 658 637 647T647 622Z" />
<glyph unicode="L" glyph-name="L" horiz-adv-x="567" d="M617 209Q617 194 512 158Q450 138 387 118Q281 81 250 68Q171 37 120 3Q76 -27 57 -27Q39 -27 21 -13T2 21Q2 32 10 52T20 82Q24 122 41 386Q53 575 74 688Q83 735 126 735Q167 735 167 641Q167 573 150
511Q127 430 120 311Q117 210 114 108Q217 148 339 188Q504 241 557 241Q617 241 617 209Z" />
<glyph unicode="M" glyph-name="M" horiz-adv-x="861" d="M852 22Q852 -64 814 -64Q753 -64 753 -13Q753 -5 754 13T755 41Q755 124 731 274Q704 441 700 509Q460 64 455 42Q443 -16 392 -16Q346 -16 329 52Q294 186 169 536Q146 411 122 286Q94 133 93 34Q92
-41 31 -41Q11 -41 -3 -29T-17 5Q-17 22 7 65Q11 74 51 323Q92 577 93 616Q93 643 118 681T168 720L180 719Q220 657 300 434Q365 252 400 127Q469 258 538 390Q619 544 680 650Q699 683 739 683Q771 683 783 634Q788 613 791 560Q795 482 825 286Q852 108 852
22Z" />
<glyph unicode="N" glyph-name="N" horiz-adv-x="573" d="M535 104Q535 84 528 67Q532 -10 492 -10Q439 -10 439 54Q439 63 440 72Q277 180 139 477Q124 379 109 281Q93 165 93 84Q93 72 101 49T109 11Q109 -69 63 -69Q30 -69 23 -43Q21 -36 21 10Q21 53 41 356Q62
675 69 685Q87 710 111 710Q128 710 145 689Q174 653 216 539Q267 400 298 342Q357 230 437 178Q433 375 433 681Q433 727 480 727Q530 727 530 584Q530 533 523 431T515 277Q515 248 525 189T535 104Z" />
<glyph unicode="O" glyph-name="O" horiz-adv-x="736" d="M738 416Q738 321 643 213Q557 116 431 48T212 -20Q121 -20 66 36T11 183Q11 261 63 378Q117 500 192 582Q279 677 359 677Q439 677 469 642Q738 589 738 416ZM648 395Q648 486 560 528Q494 559 391 559Q377
559 357 543T313 527Q298 527 277 544Q204 480 155 384Q102 281 102 190Q102 69 222 69Q286 69 389 123T566 250Q648 331 648 395Z" />
<glyph unicode="P" glyph-name="P" horiz-adv-x="551" d="M615 674Q615 535 103 318Q100 269 100 40Q100 16 87 -2T50 -21Q29 -21 17 -6T5 30Q5 78 8 174T11 317T22 460T33 605Q33 617 30 642T26 679Q26 701 42 719T79 738Q93 738 108 729T127 720Q382 743 444
743Q518 743 548 737Q615 722 615 674ZM513 659Q513 670 483 670Q415 670 304 654Q170 635 125 632Q120 552 112 416Q240 468 339 520Q513 611 513 659Z" />
<glyph unicode="Q" glyph-name="Q" horiz-adv-x="819" d="M848 505Q848 390 722 257Q653 184 500 69Q523 27 539 15T601 -2Q604 -8 604 -15Q604 -41 585 -66T541 -91Q522 -91 481 -42Q452 -8 431 25Q287 -54 176 -54Q90 -54 43 2Q-1 55 -1 142Q-1 242 52 357Q103
467 179 540Q210 569 307 637Q418 714 436 707L462 697Q516 728 573 728Q679 728 759 671Q848 607 848 505ZM764 507Q764 568 705 607Q653 642 590 642Q497 642 452 538Q418 460 418 352Q418 240 463 144Q575 217 654 299Q764 414 764 507ZM389 99Q335 220 335
338Q335 459 379 582Q246 509 170 393Q90 271 90 125Q90 29 185 29Q277 29 389 99Z" />
<glyph unicode="R" glyph-name="R" horiz-adv-x="682" d="M747 24Q747 -15 700 -15Q630 -15 411 112Q217 225 132 297Q118 127 118 73Q118 61 125 39T132 4Q132 -15 115 -30T77 -45Q53 -45 37 -27Q33 8 33 58Q33 109 43 212T53 367Q53 367 41 392L55 402Q62 473
62 609Q62 673 127 673Q150 673 163 646Q331 714 441 714Q562 714 562 620Q562 498 198 351Q273 283 430 196Q598 102 687 86Q747 75 747 24ZM472 621Q472 636 445 636Q426 636 351 622Q230 598 192 569Q179 560 169 564Q161 518 146 425Q220 442 334 501Q472 572
472 621Z" />
<glyph unicode="S" glyph-name="S" horiz-adv-x="591" d="M584 209Q584 149 530 95Q489 54 411 12Q352 -19 292 -49L287 -48Q280 -93 228 -93Q162 -93 162 -43Q162 -15 249 25Q406 98 409 100Q495 149 495 197Q495 262 361 296Q237 323 113 349Q-20 386 -20 460Q-20
564 131 650Q265 727 379 727Q415 727 454 706Q500 682 500 648Q500 631 486 619T454 606Q438 606 393 638Q325 639 208 589Q76 533 76 476Q76 440 207 410Q406 365 452 348Q584 297 584 209Z" />
<glyph unicode="T" glyph-name="T" horiz-adv-x="667" d="M788 651Q726 602 702 602Q683 602 677 631L681 634Q520 627 489 624Q381 614 302 586Q295 499 293 398Q291 326 292 213Q294 57 294 27Q294 4 280 -16Q265 -39 242 -39Q194 -39 194 170Q194 243 201 367Q207
485 207 506L206 563Q154 552 103 541Q41 528 -1 528Q-20 528 -34 543T-49 578Q-49 612 61 632Q137 644 212 656Q223 687 255 687Q255 687 289 675Q433 710 718 710Q788 710 788 651Z" />
<glyph unicode="U" glyph-name="U" horiz-adv-x="683" d="M703 677Q703 550 640 389Q573 216 471 106Q352 -21 221 -21Q103 -21 54 206Q24 342 24 524Q24 603 29 622Q42 675 96 675Q138 675 138 629Q138 581 132 485T125 340Q125 272 155 183Q192 71 246 71Q326
71 414 178Q491 271 546 406Q599 535 597 613Q597 622 595 641T593 672Q593 731 637 731Q703 731 703 677Z" />
<glyph unicode="V" glyph-name="V" horiz-adv-x="617" d="M638 703Q638 678 487 342T321 -6Q301 -23 274 -23Q268 -23 243 -15Q236 -13 176 163Q94 404 38 524Q35 531 7 568Q-12 595 -12 616Q-12 635 5 654T41 674Q82 674 176 431Q231 280 286 128Q390 330 423
399Q517 597 525 668Q528 696 547 722T592 749Q610 749 624 736T638 703Z" />
<glyph unicode="W" glyph-name="W" horiz-adv-x="871" d="M882 698Q882 681 868 655Q851 623 848 614Q816 508 785 402Q729 223 682 120Q618 -20 571 -20Q501 -20 452 211Q422 352 410 514Q375 458 272 220Q175 -5 175 -5Q157 -15 141 -15Q101 -15 91 13Q87 24
87 71Q87 161 41 374T-5 629Q-5 653 9 669T46 686Q62 686 83 674T165 207Q200 303 297 485Q414 706 456 706Q504 706 504 628Q504 614 502 590T500 558Q500 326 575 105Q643 218 693 389Q733 538 773 687Q787 739 824 739Q882 739 882 698Z" />
<glyph unicode="X" glyph-name="X" horiz-adv-x="534" d="M525 696Q525 674 426 544Q364 465 302 385Q320 347 377 231Q444 94 449 91Q488 59 488 39Q488 24 476 10T449 -5Q403 -5 331 126Q316 154 245 303Q183 216 121 128Q36 0 36 -55Q36 -75 20 -88T-16 -102Q-38
-102 -52 -88T-67 -52Q-67 17 201 397Q195 410 125 541Q63 659 63 665Q63 686 81 699T120 713Q152 713 200 613Q229 546 258 478Q355 611 360 618Q449 730 485 730Q497 730 511 719T525 696Z" />
<glyph unicode="Y" glyph-name="Y" horiz-adv-x="548" d="M569 687Q569 678 554 662T528 642Q504 595 258 383Q264 333 261 258Q257 144 257 133Q257 104 269 50T282 -29Q282 -46 267 -59T233 -72Q183 -72 183 3Q183 60 174 160Q165 279 163 318L138 338Q101 457
94 475Q59 570 24 590Q2 602 0 605Q-10 614 -10 631Q-10 670 31 670Q93 670 140 586Q148 571 198 448Q219 465 373 602Q519 732 521 732Q537 732 553 718T569 687Z" />
<glyph unicode="Z" glyph-name="Z" horiz-adv-x="737" d="M852 61Q852 47 841 34T815 21Q799 21 762 28T704 35Q526 35 378 14Q340 9 200 -28Q78 -61 35 -61Q13 -61 -3 -47T-20 -11Q-20 25 168 282Q332 507 405 591Q323 577 277 567Q188 545 160 521Q125 491 103
491Q90 491 77 503T63 528Q63 599 273 658Q444 706 542 706Q583 706 583 654Q583 642 556 616Q304 372 118 54Q443 112 686 112Q759 112 824 100H823Q852 82 852 61Z" />
<glyph unicode="[" glyph-name="bracketleft" horiz-adv-x="294" d="M304 -182Q289 -211 199 -249Q114 -286 75 -286Q24 -286 24 -109Q24 4 55 226T86 558Q86 576 81 609T76 659Q76 696 120 696Q128 696 144 694T166 692Q185 692 219 705T272 718Q287 718 298
715Q300 712 300 704Q300 676 251 648Q210 625 176 620Q175 500 141 252Q108 10 108 -116Q108 -176 118 -194Q135 -184 189 -175Q235 -168 263 -168Q285 -168 304 -182Z" />
<glyph unicode="]" glyph-name="bracketright" horiz-adv-x="306" d="M253 677Q253 529 233 279Q208 -21 204 -119Q213 -129 213 -139Q213 -178 126 -240Q43 -300 2 -300Q-17 -300 -17 -271Q-17 -252 42 -201Q81 -168 120 -136Q148 186 168 649Q132 641 70 641Q21
641 21 680Q21 707 105 726Q172 741 217 741Q243 741 250 720Q253 711 253 677Z" />
<glyph unicode="^" glyph-name="asciicircum" horiz-adv-x="333" d="M311 362Q311 344 297 333T265 322Q227 322 198 433Q183 508 168 584Q142 524 91 404Q82 382 54 382Q36 382 23 393T10 423Q10 453 82 601Q156 754 180 754Q214 754 233 686Q244 649 263 550Q280
465 298 415Q311 379 311 362Z" />
<glyph unicode="a" glyph-name="a" horiz-adv-x="339" d="M345 220Q345 177 332 103Q316 16 296 -7L298 -5Q290 -15 275 -15Q247 -15 236 10Q163 -32 107 -32Q66 -32 40 -6T13 62Q13 122 62 179T170 237Q227 237 260 172Q264 194 264 217Q264 270 246 315Q222
374 178 374Q145 374 112 345Q110 328 87 328Q44 328 44 370Q44 407 98 431Q142 451 184 451Q265 451 309 372Q345 308 345 220ZM211 91Q188 156 169 156Q139 156 115 126T91 64Q91 43 111 43Q146 43 211 91Z" />
<glyph unicode="b" glyph-name="b" horiz-adv-x="364" d="M379 278Q379 226 261 93T108 -41Q86 -41 71 -29T56 5Q18 12 18 55Q18 61 19 76T20 98Q20 245 31 330Q16 348 16 363Q16 390 48 407Q71 498 71 661Q71 676 81 687T105 699Q136 699 153 664Q167 637 167
603Q167 565 155 512Q145 468 134 423Q217 421 287 389Q379 348 379 278ZM291 271Q291 307 229 326Q183 341 138 339L118 338Q100 254 100 164Q100 114 105 63Q291 200 291 271Z" />
<glyph unicode="c" glyph-name="c" horiz-adv-x="520" d="M569 191L568 183H569L568 182V183Q549 133 371 57Q203 -16 137 -16Q78 -16 38 14Q-5 48 -5 105Q-5 194 88 308Q186 427 272 427Q322 427 322 392Q322 347 290 334Q273 328 224 328Q187 328 133 241Q82
158 82 116Q82 61 145 61Q200 61 296 104Q355 130 448 183Q523 226 529 226Q545 226 557 216T569 191ZM569 183H568V182L569 183Z" />
<glyph unicode="d" glyph-name="d" horiz-adv-x="518" d="M515 660Q515 590 492 441Q467 275 463 213Q507 201 507 156Q507 137 484 126Q480 123 446 112V90Q449 3 413 3Q365 3 358 62Q210 -26 112 -26Q58 -26 26 9T-6 99Q-6 183 83 278T255 374Q340 374 387 294Q417
544 417 678Q417 726 453 726Q478 726 496 706T515 660ZM346 155Q323 294 257 294Q202 294 140 220Q79 150 79 93Q79 53 121 53Q161 53 236 92Q247 98 346 155Z" />
<glyph unicode="e" glyph-name="e" horiz-adv-x="496" d="M506 196Q506 144 364 60Q229 -20 168 -20Q98 -20 45 50Q-3 115 -3 189Q-3 297 92 366Q178 429 291 429Q324 429 352 421Q393 410 393 387Q393 343 263 278Q171 232 89 206L87 187Q87 142 112 104Q140
62 182 62Q225 62 295 108Q342 139 406 195Q459 242 461 242Q478 242 492 228T506 196ZM228 345Q186 332 156 307Q183 317 228 345Z" />
<glyph unicode="f" glyph-name="f" horiz-adv-x="383" d="M423 671Q423 658 414 646T391 634Q376 634 349 646T305 659Q237 659 209 531Q191 450 193 350L194 309Q237 311 324 317Q336 326 350 326Q369 326 383 311T398 275Q398 238 322 230Q268 229 214 228Q202
227 195 226Q195 105 169 -96Q136 -358 89 -358Q66 -358 49 -346T32 -310Q32 -274 60 -174Q91 -62 95 -28Q109 86 109 208Q101 204 77 177Q58 157 40 157Q20 157 5 172T-11 206Q-11 237 36 264Q70 285 108 294Q112 480 136 567Q183 735 316 735Q356 735 385 723Q423
706 423 671Z" />
<glyph unicode="g" glyph-name="g" horiz-adv-x="533" d="M729 -62Q729 -79 702 -90Q681 -99 661 -99Q624 -99 610 -70H583Q520 -69 431 -80Q441 -113 441 -154Q441 -299 348 -433Q247 -580 109 -580Q26 -580 -37 -524Q-103 -467 -103 -385Q-103 -252 44 -146Q160
-61 312 -24Q266 29 185 29Q156 29 106 12T32 -5Q17 -5 3 7T-11 34Q-11 67 30 81Q22 107 22 128Q22 171 60 224Q95 265 129 306Q107 326 107 346Q107 376 131 376Q139 376 154 372T174 368Q219 368 307 380T440 393Q501 393 501 354Q501 340 481 324L433 322Q414
321 321 307Q358 263 358 220Q358 159 278 93Q348 64 396 -7Q487 2 549 2Q729 2 729 -62ZM279 219Q279 243 262 262T222 288Q189 258 154 214Q107 155 107 128Q107 114 110 102Q162 114 212 143Q279 180 279 219ZM359 -169Q359 -132 347 -96Q231 -118 118 -194Q-19
-285 -19 -384Q-19 -429 21 -462T107 -495Q206 -495 286 -379Q359 -273 359 -169Z" />
<glyph unicode="h" glyph-name="h" horiz-adv-x="470" d="M452 149Q452 142 453 117T454 75Q454 -17 410 -17Q362 -17 362 80Q362 105 365 144T369 192Q369 252 366 273Q358 332 329 332Q290 332 219 262Q155 199 135 155Q112 105 112 7Q112 -20 98 -40T58 -60Q37
-60 24 -46T10 -10Q10 4 18 30T27 70Q39 309 41 345Q50 502 64 620Q73 697 109 697Q158 697 158 642Q158 577 141 455Q121 320 119 266Q255 416 347 416Q452 416 452 149Z" />
<glyph unicode="i" glyph-name="i" horiz-adv-x="185" d="M157 708Q157 697 146 675Q125 633 118 592Q115 577 107 569Q92 555 77 555Q44 555 44 599Q44 622 55 653Q64 679 73 705T86 738Q96 753 116 753Q134 753 145 740T157 708ZM155 374Q155 329 142 238T129
101Q129 90 136 69T143 37Q143 18 131 4T100 -11Q48 -11 48 86Q48 68 59 299Q62 368 63 376Q73 428 105 428Q128 428 141 413T155 374Z" />
<glyph unicode="j" glyph-name="j" horiz-adv-x="273" d="M209 672Q209 622 173 622Q123 622 123 687Q123 727 163 727Q209 727 209 672ZM228 -57Q228 -246 140 -380Q39 -537 -140 -537Q-238 -537 -305 -477T-372 -320Q-372 -292 -364 -261Q-352 -218 -331 -218L-307
-252L-309 -298Q-313 -372 -266 -415T-142 -458Q-3 -458 73 -318Q135 -205 135 -55Q135 107 97 327Q86 338 86 365Q86 380 99 389T127 398Q184 398 211 194Q228 67 228 -57Z" />
<glyph unicode="k" glyph-name="k" horiz-adv-x="558" d="M640 74Q640 37 566 11Q505 -11 458 -11Q294 -11 85 160Q78 104 78 63Q78 44 84 7T91 -49Q91 -90 38 -90Q-4 -90 -4 51Q-4 174 26 385Q66 664 122 664Q141 664 155 649T170 615Q170 591 140 482Q108 362
103 332Q418 428 472 428Q508 428 508 394Q508 371 489 356Q481 349 432 339Q400 333 368 327Q247 299 113 245Q180 181 276 129Q387 69 462 69Q511 69 546 94T590 120Q609 120 624 106T640 74Z" />
<glyph unicode="l" glyph-name="l" horiz-adv-x="167" d="M180 692Q180 677 175 644Q124 240 124 -1Q124 -76 86 -76Q47 -76 39 -27Q38 -18 38 50Q38 146 56 411Q77 722 97 739Q113 752 128 752Q151 752 165 734T180 692Z" />
<glyph unicode="m" glyph-name="m" horiz-adv-x="612" d="M597 48Q597 6 551 6Q502 6 502 156Q502 189 504 238T507 295Q507 372 490 382Q393 224 335 16Q318 -43 291 -43Q235 -43 235 132Q235 158 236 207T237 275Q237 348 223 357H221Q203 357 157 213T112 29Q112
25 113 10Q114 -1 114 -8Q114 -24 98 -32T66 -40Q35 -40 26 -18Q21 -6 21 30Q21 84 27 190T34 351Q34 372 47 385T81 399Q116 399 131 355Q197 474 229 474Q288 474 307 367Q310 349 316 220Q441 473 503 473Q590 473 590 227Q590 194 589 149T587 96Q587 88 592
73T597 48Z" />
<glyph unicode="n" glyph-name="n" horiz-adv-x="367" d="M365 -26Q365 -42 354 -54T325 -66Q268 -66 268 14Q268 58 264 146T260 279Q260 310 255 345Q238 296 180 183Q129 82 110 17Q105 0 103 -5Q98 -18 90 -23Q78 -31 62 -31Q19 -31 19 34Q19 295 41 414Q47
451 76 451Q129 451 129 399Q129 377 124 334T119 271Q222 456 276 456Q345 456 345 192Q345 168 344 136Q344 104 344 98Q344 65 354 25T365 -26Z" />
<glyph unicode="o" glyph-name="o" horiz-adv-x="375" d="M357 232Q357 140 286 62Q214 -19 122 -19Q64 -19 28 38Q-3 88 -3 150Q-3 227 60 322Q128 426 202 426Q272 426 317 362Q357 305 357 232ZM276 244Q276 271 262 302Q246 340 222 340Q179 340 129 265Q82
195 82 151Q82 122 93 96Q107 64 133 64Q188 64 234 128Q276 187 276 244Z" />
<glyph unicode="p" glyph-name="p" horiz-adv-x="327" d="M337 238Q337 189 252 91Q164 -11 109 -11Q101 -11 95 -8Q89 -72 89 -153Q89 -196 91 -281T93 -410Q93 -427 83 -441T55 -455Q2 -455 2 -278Q2 -254 3 -221T4 -181Q4 -3 50 346Q26 360 26 380Q26 408 56
427Q82 444 113 444Q193 444 265 380T337 238ZM251 248Q251 279 215 314T146 357Q124 244 103 78Q154 108 196 150Q251 206 251 248Z" />
<glyph unicode="q" glyph-name="q" horiz-adv-x="312" d="M524 -222Q524 -253 406 -383T253 -514Q191 -514 163 -358Q145 -260 145 -152Q145 -47 166 78Q92 -2 57 -2Q8 -2 8 98Q8 188 57 313Q115 462 188 462Q211 462 232 446T253 408Q253 385 235 377Q225 373
198 371Q155 341 118 258T82 120L83 105Q131 150 167 208Q210 277 210 330Q210 362 254 362Q302 362 302 318Q302 300 286 251Q274 216 262 182Q222 43 222 -156Q222 -386 263 -426L266 -428Q278 -428 324 -368Q390 -281 412 -257Q466 -197 499 -197Q524 -197 524
-222Z" />
<glyph unicode="r" glyph-name="r" horiz-adv-x="388" d="M446 399Q446 382 431 372T398 362Q392 362 380 366T361 370Q322 370 236 271Q176 200 134 136Q116 109 109 50T96 -16Q82 -33 62 -33Q12 -33 12 25Q12 63 21 139T30 255Q30 282 19 334T8 411Q8 426 22
436T53 447Q112 447 112 309Q112 294 112 273Q111 251 111 246Q278 452 370 452Q446 452 446 399Z" />
<glyph unicode="s" glyph-name="s" horiz-adv-x="336" d="M338 475Q338 443 301 443Q292 443 278 449T263 455Q224 455 153 371T82 244Q82 203 148 177Q209 155 270 132Q335 100 335 45Q335 16 250 -42T136 -98H138Q119 -97 104 -87Q86 -74 86 -57Q86 -27 167
6T246 53Q219 75 146 97T45 142Q-1 177 -1 247Q-1 316 92 426T249 537Q273 537 305 517T338 475Z" />
<glyph unicode="t" glyph-name="t" horiz-adv-x="420" d="M489 431Q489 396 453 396Q446 396 434 397T415 398Q351 398 260 378Q245 256 245 3Q245 -38 209 -38Q182 -38 167 -16T152 34Q152 164 176 360Q160 355 98 325Q42 297 35 297Q20 297 7 312T-7 343Q-7
394 189 447Q210 581 210 677Q210 729 247 729Q293 729 293 635Q293 596 273 463Q332 472 388 472Q432 472 449 469Q489 460 489 431Z" />
<glyph unicode="u" glyph-name="u" horiz-adv-x="327" d="M332 358Q332 304 288 165Q239 15 204 -2Q186 -11 167 -11Q86 -11 50 161Q28 268 28 399Q28 451 65 451Q101 451 110 417Q113 404 113 356Q113 288 124 213Q138 107 165 83Q190 88 217 209Q237 302 241
363Q245 416 279 416Q299 416 315 398T332 358Z" />
<glyph unicode="v" glyph-name="v" horiz-adv-x="436" d="M478 473Q478 447 350 271Q208 76 191 40Q160 -22 120 -22Q90 -22 74 21Q59 61 42 143T11 264Q-14 332 -14 350Q-14 362 -5 372T16 382Q67 382 99 273Q115 196 132 119Q199 219 287 339Q422 522 441 522Q458
522 468 506T478 473Z" />
<glyph unicode="w" glyph-name="w" horiz-adv-x="691" d="M755 402Q755 374 602 175T429 -25Q394 -25 382 -8T300 297Q223 209 195 151Q174 99 152 47Q117 -23 78 -23Q19 -23 19 345Q19 398 60 398Q117 398 117 278Q117 261 116 234T114 199L115 184Q148 246 205
319Q280 414 318 414Q340 414 355 404Q360 400 393 267Q432 114 434 107Q647 377 651 387Q673 448 703 448Q723 448 739 435T755 402Z" />
<glyph unicode="x" glyph-name="x" horiz-adv-x="300" d="M272 415L271 417Q260 373 233 313Q211 262 188 212Q264 11 264 4Q264 -12 253 -22T225 -32Q194 -32 172 25Q159 67 145 110L78 -50V-63Q80 -121 24 -121Q6 -121 -6 -104T-18 -67Q-18 -59 37 70Q69 146
102 221Q84 266 66 310Q39 379 39 396Q39 432 77 432Q102 432 129 375Q137 357 158 294Q164 342 179 390Q202 462 231 462Q266 462 272 415Z" />
<glyph unicode="y" glyph-name="y" horiz-adv-x="382" d="M356 294Q356 83 279 -394Q297 -418 297 -439Q297 -460 280 -472T241 -485Q220 -485 205 -473T189 -439Q189 -398 212 -390Q216 -346 242 -77Q260 114 264 237Q98 43 43 43Q-1 43 -1 132Q-1 204 18 314Q41
459 76 459Q91 459 108 445T125 415Q125 370 107 288Q87 192 84 159Q87 162 203 294Q300 404 310 404Q336 404 348 361Q356 331 356 294Z" />
<glyph unicode="z" glyph-name="z" horiz-adv-x="551" d="M607 106Q607 80 566 79Q487 77 323 31Q164 -13 79 -13Q61 -13 35 1T9 31Q9 48 147 175T285 324L284 326H264Q233 327 178 311T96 295Q55 295 55 329Q55 365 132 386Q188 402 238 402Q383 402 383 356Q383
301 296 208Q231 144 165 79Q206 84 376 120Q527 152 564 152Q580 152 593 137T607 106Z" />
</font>
</defs>
</svg>
